<mxfile host="app.diagrams.net" modified="2022-02-03T07:16:58.006Z" agent="5.0 (Windows NT 10.0; Win64; x64) AppleWebKit/537.36 (KHTML, like Gecko) Chrome/98.0.4758.87 Safari/537.36" etag="1NhTNeRj4V3ypIiTyvp1" version="16.5.3" type="github">
  <diagram id="gwoukAWFIGVlj8ozIFlX" name="Page-1">
    <mxGraphModel dx="782" dy="432" grid="0" gridSize="10" guides="1" tooltips="1" connect="1" arrows="1" fold="1" page="1" pageScale="1" pageWidth="850" pageHeight="1100" math="0" shadow="0">
      <root>
        <mxCell id="0" />
        <mxCell id="1" parent="0" />
        <mxCell id="1HKstY3SupUgEbeO6-YS-2" value="JMS-Queue&lt;br&gt;Customer-Contact-Information" style="sketch=0;aspect=fixed;pointerEvents=1;shadow=0;dashed=0;html=1;strokeColor=none;labelPosition=center;verticalLabelPosition=bottom;verticalAlign=top;align=center;fillColor=#00188D;shape=mxgraph.azure.queue_generic" vertex="1" parent="1">
          <mxGeometry x="425" y="143.45" width="119" height="35.7" as="geometry" />
        </mxCell>
        <mxCell id="1HKstY3SupUgEbeO6-YS-5" value="" style="edgeStyle=orthogonalEdgeStyle;rounded=0;orthogonalLoop=1;jettySize=auto;html=1;entryX=0;entryY=0.5;entryDx=0;entryDy=0;entryPerimeter=0;" edge="1" parent="1" target="1HKstY3SupUgEbeO6-YS-2">
          <mxGeometry relative="1" as="geometry">
            <mxPoint x="312" y="160" as="sourcePoint" />
            <mxPoint x="404.5" y="161.30499999999995" as="targetPoint" />
          </mxGeometry>
        </mxCell>
        <mxCell id="1HKstY3SupUgEbeO6-YS-3" value="CIBIL" style="shape=image;verticalLabelPosition=bottom;labelBackgroundColor=default;verticalAlign=top;aspect=fixed;imageAspect=0;image=data:image/png,iVBORw0KGgoAAAANSUhEUgAAAMAAAABXCAYAAABSv0r8AAAAAXNSR0IArs4c6QAAAARnQU1BAACxjwv8YQUAAAAJcEhZcwAAFiUAABYlAUlSJPAAAB6GSURBVHhe7Z0HkNzVfcd/ul53r/c76XTqDTWDqBJFohhTLCkmxk6Ma3DGOE4xcWYy45LMhOAhE48nibE9ExNjGxeMLYqxDcYSIGQhgSQk1E7ldL33fqd8vm9vFXHohHS3Ejj7vqO/9nb3X175fX/lvd97O+0kMA+PKEXM2KuHR1TCE8AjquEJ4BHV8ATwiGp4AnhENTwBPKIangAeUQ1PAI+ohieAR1TDE8AjquEJ4BHV8ATwiGp4AnhENTwBPKIaPh3a46JjcGTUjnX0cvTZ8c5+q+sZtF4+kySmxcdYQUqClaYl2azMFMtLTbBAYvzYlZGHJ4DHRcHA8KhVtvfaGwj9PoS+vW/Q2gaGrWNwxLpGRiwGKYyfZjbMucmxMRaMi7Xs5Hgrhgwz05NsSXaqI0ZaQlzohhGCJ4DHBYNEa3j0pLUPjdiJngHbUtVmv67vsK2tvZYSM80SEPTY+FibFjvN0nmfOm2atWIJ+jl/ZGjUBvg7EBdjFemJdsf0bFuRm2blgWRLhwRxnB8JeAJ4XDAMj45ac++g/RjB/+7RZuvsHrBcNPu8QJJdXhCw8mCyZaHlY2NiDM/HBaTDSGPP4LC19A7ZwbYee76p27bymsU5l2MFbi7KsBvLsy0nOSH0kCnCE8DjgqAXLV6L1v9FVattqu2wHfj8N2Sn2WVZqbYE3352RrLlIsRyaTAANg3tH8bAMG4RrlE917+Oy7S9tcf2NXY7y5CbFG83lWXaVYVBW8C9pgpPAI+IQuIkgTqGn78Fd+eBvXVWh68/B6H/8oJCuww3Jus8tXdr/5BtqmyCTG2ODDNS4u3u2Xl2F0da/NTcIU8Aj4hiFHHSKM/3K5vtoX111o07c3NJhn1iboFVpCVaAJ8/Ht//fDCEK9XaN2Tb6jvtt9Vt9jQWZVFGiq2fnmW34A5lT8Ed8vMAHhGFAtedjV22raHTavD/1xYF7Y6yLFuelWJZiXG4NsO2t7nLNiPIB9DmQ5wv0pwN8fj/+amJtjIv3daWZNoCYofGvkF7tqbdjnX1u5hhsvAE8IgY5Ez04Kf/Bldlb0uPFeGvf2xWnl2Hvx6HEMvPP941YL850WY/OdRoOyCKtPu5+iBF6QTPEOr9WJRkguktzd22h+c0YR0mC08Aj4hBQ56dBK/b2npMXvnthelWlBz/FpdnJ8Hwt4+32k5ihE60f2JsrJ2PCx8gaL61PMeW5KdbB9dvIsjehSWZLDwBPCIGuT8KWBv6h93ITnlKoqXExSDg05yb00UwXNMzaCe6B6wQYuS7IdBpbxkBeido7qAYS7A4I9nmEFO82dFnhzv7XKwxGXgCeEQMIkAHgjiCsI/qPa8tWIRGSFGHzy5BbYIAibg8i/Hjc4gJmvlOQbMOCbHed+NGudEk3YdD32nWuJPv9bc+mw8J1uSk8vkIhBq0FuKNycCPAnlEDBLOowSlf/ZSpR1EMxcQA2SlJDitfRIlr+9lAUSGMj7Pwp2pILj90uIiG+W7rQTOz+PT31CUYR+vyHXWQaSo7Oi3/znSZMVYjGvzAjY3O9UaEfgXatvtq7tq7GqC449V5Nh1M3LGSnLu8BbAI2KQoGty67ayTLsGoUxFgFt7BqwWzV8DIV7DV69Dw6dw3jAC30Hw2gwhZDEOQpxN1e0ueG7nHHlFcozkUu1t6bbf13VYJXFD2FvKgFwlWIEEXCxZDCXUTQaeAB4RRUZCrP31vAL7+/kFtrEoYGvR1tdnptjVuDzBmBhLR4BncM7lCO8N2Sl2DW6MLMHh3iHb3NZrJfxdhmsUHjWSYO+GFA18nxQXGxJ6CJQaH2tZkCCWILqP4FtEmQw8ATwiCinoBIRyXnaabZhTYJ9ZXGz3LCi0m6dnWyaCOx+X56Pl2XbvoiK7d3GJrZ+V6+YC2nFpkhHkFVmpVo6Qh7GLgHlTU5elIPBFuE1KjZZrdAr8OYwF6eMek4EngEdEIa0tAc1EO1dkpNhCiFCalmiJfKaU5zIIsLoww5bnptuinDSbHkiyE7g/dbhKiWj9BVkpVsz5I5BB/n8Nn9fgKs1NT7QZus/YqNJ4vP2Tc4MngEfEIKHVSJAOzQmE0YwAH8T/7xsesTxihPloeU1kCf3Do/YGLk41mj4RLT9Ti2DQ9MokVTJcB65PKvdaxTWzIEAYoREi94fFQ4iUsfudLzwBPCKGPQSr39lT445XCFrD6FfAOzTsSCHlHRr7D32n9OcTuD9aEZadGOsEWRq+ZWDYHj/aYju4Z3x8nE0nhtACmTAU+Lb0DdowBErnmiIsy2TgCeARMWhocntjlz1Z3Wa7CWjDSMZtkUukrM39nf32w2Mt9v0jzfZyQ6ebHEskNkjgux6EeSvX/7yq1X6E8D9T226HsQJ9dtJ2dvbZtuZu28uhNQZ1WIxjfDaIpUiHOMW4SJNB7JfB2N8eHlPCofY+N5a/ta3fShDIdcUZoS/Q9hrq3NLQba/g7vyypsOtE9DY//xAop0cOWlVuDqvtva6e2w60WaPc5zoH7I+LEQf174CoWo0DEpckJEQZ8eJG0S2XXz2PuKJm0oyIcL5L5f0BPCIGDTRJTdnd3uvpRLQliKQGUlxbsgyFaFV+kMR74O4ODP5ewlB8mxcm1m8ZmMhAlgB+fY5nH8pwfCfV+Ta7aWZdoViBu4bx3caHr20IGA7IMvjJ9rdXMN1RUG7siB43mnWgieAR8Sg/B+5Oa8191jHwIgN4J7MlO+OcKcnxFoBQp+fyMH7BQj9fA7t/lAaSHJzAUqNCHLo81Vo9euwIJcQFM8k+A3iRuUmJVgm99Ci+c1o/+1YkzX56bYGAsyb5OownwrhEVE0EZh+9dXj9ixBcDe+z8OXzbCr8wMWROgjAY0MPbyn1jYRZ7QQMzy4sgztH7ACiDQZOAK8XNPmko10TAZLx8Z0owUy88cJwF6gEzQUV5CaYCtoAwV6yZjvM0Hugca1X6nvtBoCOI2CrMFvnRFIdlozEtAwpLYe0egIj7MF9IkWnV9M9A6P2B+o4/cON9lPjrfadYUBu2tmjn1wRrabwT3TGP65opI44MW6dvvuwSY3TLoUrf/ZxUVWgZUJD6ueLxwBvvlalVV2DdgROuYtMwrjC3smY8FHH52Tbx+syHGXnk9q6x8rtIjj5bpOe+C1Ey64W4y/eg9tIFM+0SZOvQi/tON/7au3nU3oRprp/mWldhXmWyuepgoRrGNgyH5+pNkOEkgKG2fl2kKEJNJ76ZwNImHPUGgI8+EDDVZDnVdhAUSCZZRFKdDnI6zK/NRcgYLeF2s77PmadtsJEbS2+E8g1VW4ScoLmiwcAe59br+92tFnOzv67dTqBL2M10xSd+M5wGdfXV5qf7eoiI48v9zuP1aIAL9Au929+bCzBtfihz5AG8zEd5UVOBM03FfX3W+ff7XKfk0n0vD26Jo59sHy7IgQoBVBO4hgfJH7v6zUAbTtV5aW2K3Ts2x25tR3TzhXIE7utRqB3Yol+PKuajvQM+iGKf9lSbGtKQxa0Xm4K2pfzRJ/b1+dPUm7vdnZb8szku0T8wrsT+fmu3H8qcicC4J7YazyL5Zw4ytyUt2xDLOSRSMOUoBeOrwA034NrLu9OHjqnNCRZmvG9nhRMaKBANJK+1EYP61qtRHea4p+HR3rXKAJtFvYBXoGLXZYlhasR/gVDMZGoM20F8MIx1NYpiOQIYH+2sj9l6B1lUdzsaD+1yFSBxJjLY82GYITb0KIaryMStqtHkUwQnuo1hr/l1uka0QeWVS1Uz2k2YOl/NnxFvsO7tRLDZ0WyxVXIIMfQfBXIXNKhpuqvDkLcAS/UXuxyNSE0Y7GepFA5mmi7d0UfD6mayPa5NTY7mnQWk0tWo4WyAI8UdVmH5YFoMNkAR5E256LBbhvR5U9CwmmIRQ/WD3b1s/IiogFkE+svXQe2l9vr2EJZAGUlbk8O9X53u8GVKYGBPnp2nb7Ce3VQNwUR701CrQM5VmGy6gdHRJQGiKCaNqnetBWWuByFLK82tZnB7EA05G/S6nLtQVBu7Y00wl/JOAIINaNd20USP0KP+5RtNwrrb22EhP26fkFtmFW3tgZ/weRcCrBzR8b3osEkPZUF8piu/4ESi4bv+nUxUS4TEqF0Czxr4422xPVbfZcYw/CfjKk+UXO+BgL8ppGMZtQwoNDozaKQqYqbmh0cWaKfXJOnq1E+8t90qBBpOTNEWDs77dABHiGgOr7+Lray/HSgAhQaBtnhwgQCnZG7ISmo6mgTH9pMMnlbKtoSnEV+3UfQYKhXA5NiJxeeN1HDaRFENpNTMKlyY6kOBoE0x0cl/7axv1aOFcWSt9LE0iL6Jx+Gq2Z79v7h13ilVwLbaGnkRC5ARM1msqq7To0xKY6DY6EmkR7UOZwbQEuzunXRpIAHyjNsEE6XX6unpuaEGuFWFMFruqaDmnDsToLmlRSnTIQjMRx7pZcsw7qrv5QcTWmPv6cMNTWCpq7BkJtrvO14DzANWcK5Bson1IPRiij6lhEm6gsqr/aTuXvwQJJmmRxtKuzzgm3mxLklPV5RG4QLmAtfzdACi2BbKWvxJRETo2R60SZsymHRteUGToDD2Pe2HxCpN25SRNAQqPhvCcqm9zmp2l03DxMVAWFTaUC+zDDRzBhYr6gTpulGAPfTYKrTtJ31b2h9aIyefL9pMEUTKui6XSEhFfba2gWUffY19JtuzkOErDrmeWY0SvyA9ZO41dDOHWSRlt6Eao4Gr8AYSrDes3mPP2tTg5Dbp+GfivpjKMEVzV0jtadaidjISM5jo5MhNjJtiCQ7MqgsqnTI0WAtYUBfOIB24y7qbWzEr4ruZ9WVomMh2jDKr5voE6CJpQKU0L10RCqBEQIr539PYGilh2qnKtxV4spf1iB6Hvd8xj3q0ZgJYAimD6PQW0Fk+LccwsRPMU12sdHCk14mfJtOtbsglK14zzqOpd2aae99tLXJ6ibXDCVIyk2Frc40W1vvmhMcMNuWEjhjVgV/VfDNfWUoUmkhYQiS9qY8OenJLh0ityxNQAXCpMmgIRnB0HKp35/yI7TcQkIVj5Bz4eIE2bSQP+8p9Zq+fykswfuQbYCgjx8VYVjtDT1k0ea7PHqdtva0msnaQCVRIXRFdPotGloA73ejpBswO+7YXq2PYkZ/THler65x2kVBe73Lyy0LcQqLxAoaThXQddJdTr/1H1ad7qxOGAfKM+1xbnpKo6DNP4f6trt4cPNtoX7yXU4yT1dIYCeHaP8c4TugSXFtrEsywl4JAmgDV9fp9z/tr/BXm3tsTie9+mZOVbKfQ5Dyueo1/G+IRuVJtU/DkI/uw4fev2MbPswfr4ghaRVUZ+hTM9z/3Tcim9dM9tuKMk4JcRupIh47xvECVuprxasq6onEUpBIqqd22akJdh98/Ltqvygi++E/9xXZ3+77ZimejknxsoRzLvp6/0I8vdwlUcp11izuUKKdIWQ6V+XlXCfgGVzvhAWN7W1HivC6DV87Vi3OTLIgqu+E1nuSGDCVAi5EIdh9m40UDUdUAwrNdmzkA4TKBr/I96UvBWtclRal8o00tHSMMNcvwAttRwtUIbm1DYWl+WkuZyNXc1E9wjyk3RUbd+wC4puLc60tUUZtgZhfx/n5fM8NVYNGiaII1vMOYvxAWUZ4nnfhPC20+nyGavpeK0pjaNIa/LS7X2UsRwtNoAv2YXJbqN8DZxTChGKU0IjNTLbOyjHfxxotJ3tfZZEy99ER92I1tSxGkulZ548OWpHtesA9xikrpeOTfip43+GcpCtKEdbruN8Cf87jgKhSUVStZ4EeBHtI6vUPTRsndTlCOXs4PUA52jkZDY+7yrqcykCn4nwDSEttbRxN+fIv8+HnHJFtFBkgO8eo0waKsSXsNsR0FloYAmQXMYX6jvtmyIa/VpPWeRULeb+C+Vm0C4a7VMZWug7WVMJp9IQFKPIomTyrEo0dgPE6aI+tciFLEoFwn0N/Rpq90Sr5t5ya3S/ep4rt27J2FBseJTICTj3lLurHB5ZCB16lj7TdzrnQscvkyaACpdAQZXfcQiBf41ofYiyykQm893VnCshWoXAzEKLaDRiUVYKminOnj7Raj891mJ7uU4/fnATgn8nnXV1IY2IkC/MTLYAjaFZxTc5R0lS0xHoS9FI+Zh/5YLUIRx1NHQVnXGETlE5tBD7ztIsW8kzyzGfyZSvk3uoE07gamlbbi2qUCzSxPutDV32cGWzM8vLEMR70LzXI/wi6XJHwlhLoC7aekP56vKp1xUFnfBGigCX0C5y84YhazM++Q5cuEbOUwZkCXW+lfKspV1WUJ48ni/FIyXTjOBxiuXSFmW0YQZuggigLMpKlINSjO/EYs6izsKulh63ueyjtDunce9EV8e1tJkINh8FpfhMBWvl/gcpo9TydLS4XJgi2l3XPI9FqkIeBnm4cvHn8Ow7sM5SXJrokvXo4gHd1LeZ+xyBSKUiSF6a0+gXUptPBlMafkiQZkbQJBgONMpKNM6nEKQvXFJiH5qTb9fRCbfNynPuy8xgiu2nI17lOEQjpqO1NiAEX8C9WI721b1yaegyfNt5aIwKpQmoR+iIMKT1FGPol0P06sBnG8tz7H6eeQUmfyn3uh535f7lZU54CunYGEjUwjMVmEsA2tC0Wqmk7TpmI2hXo2GvoSPDboyOyyHm3bPz7W/m5NkXKnLsA7g6oRA/8sjC/85UO4pRHCsg5EOU/65ZubYKElxCnTbQnnfz/haURD7nt2E13sCl6YIMZ4OI8QRkfa6+w2Jp87lo+0+gcB65osI+t7jYNszNt43c+2srp9vn+fsyhDqI1t6H8nv0cCMxmhakx7h8njiIJchiXk857irPtvVcuwLltAQyrS7JtK/onlh0VxcscCdtXYPCksv6XsOUCCBtpEDzFKsRLKW3Xo420NI3jWQoN0YmWq9auPyi/HRpdd7finAq2y/IedJYYdOnV15c3DAeIRMaIoIKr4XWaxDa+WhhjQgl8V7ugDSxRkoWQqKFdKjcIwVsLWhZ3VYCLs02DeGooYN2odG34yLsxw+vdQHdsOOdluddKZeIjl2cnebKdSGgNgy3YxqV05aCc2kbVyfqovZRO2p9rfLflRPfgdXQGLm07USQ5dEI22HqJJdFFk377mhGVpNUanttMa4jEysiK/8hSFZA/yko34Vl12ZXUhpqcwcaMIG+X0D55GKFXTC5MHJRVUa3emvsfM0vaXRKlva9hikR4C2QVFHBPCquWWH56ePRRUNsQ8DkUmXQUKvRGDPQvmeCgqSx0ciJwfdylVZgOQroyFDQ9NbnFqApS9F4Ei6NDLldx/hcBJgZTLKlmH65coohflnVak9x/JrA/He17bYZQkjDatsNna8RkouBdOqUhQZWjsv4HHeNoGnkSxNdUij1uIDagW0iiABtkL4ZN07tL19eC9LnIbxnQgnCuxqCyMIM0AE1uDH6HS+N0jjoURxqay1DPH2ZoqB2lrLTfj1hAsgtFglG3cXvLUSOAMJY40yEXhriAFpFAaW0RSGNPdVELVUgZD1C788VCsxWIghfW15iG0qCJnF4tLrNHnyz3r60s8o+u/Wo3fNiJa9H7EHeb8dyyYe/GFCMkwQpIwEFzRqe1GiVTKdGtpKpe3hkaDwk2BLgTA79YuMo58sCaIz/dEi2ZanlAUyIC2UuI4jIEuAdIG4M8F+4Kc/CFddx8hknGKU9BbV/qJ3Pr7GlqRS7LNH+NRV5dh9+6z8sKbG/Wlhon5ydZxvwkS9DSyqEfBGr9dgxLENN+1ut0ljrjY6VVaMmE0Fa0Akir67ivDo3bpwA6Z0OjctHArpLeDjRgTKerU31jcrYw9GP0tdlcisV742HPnn7p+Pwjie8u7ioBJDO0a8Byg8dohM0bq3RpjNBuwLIZ3XfXoBG1Li5fFJpwqUEcxsI3O+bX8BRaPfyqqn3uyDBUkhQi+D+tq7DuUQSchVHuSvSknIperjXsS588bMEo93Us7Kzz50jaxUgKFE7SDgvJDSsKLdJP0QnyJPRTHkn7XsmqD80kajJTY30JFE+TThOZDH+2HFRCZCMsMzFZ8xOiLEeGvqNlu5TM8Xj8Xp7n/2uucv6z6KtpgLNgCqN40BLjxtS1a+MyJzLJdNM59ysVLupPMfWQYKCxFjrRCDqIaQgodW61ZXEL9m4CbUIzE+PNduJnon3p9QPxj11vNXqIb1GWBbhxwe5x4VGMuXLx9VM5FW9rdB+V1OX+wXGM6G+e9C213a4oFX9lUPdNdomov9/xEUlgEZ+rsxJszKCyVa06q8auu2pE222Bd+7CmHUTOmbkOKxgw32UmOX1XHOCO0uErhfEj+r03R+0Iqu53BpvonP/60DDc690RpWKWQFntJ4chUUvGlcW+PymucQFGhrGFarnEpTEq2Ncu7o7LcfHW22xw432l4E7DACpmMff/+Yz35wtMW2dvQ5y1ZK/TUHUDzBAEAkIRdLe/SvJd5ZhTVT3pHG8rUR7TYCfeXkdBIka5Z4V2Onm6P5IX0iss9CEdxWooB46mnHYciCKmfrOG2hFV5SQoqtlDn6buAcCRDKMDyr56gvOedskOa7Mj/gJk9Gcab/gJZ/ko544lhLaNQFN+NZyPAIBDgOGTTUpw7U7GQtGkm/PCjNLSCTIV/WPdd99I7Q+aFTIRSdcJhOeJwOl3D+vKrNtjf32O7WXtuD4GonY+1R8zqv7UOjbhSoEKEPQ8Oj60pDv32lEa0qyvUEgvPIoUZ7lleRS4erz6Em+1lVqx1C+0ubLstMtffLspx2P4exOklIQmNVZ4fiEbkpaotTCLfJaZC7dmNBwNblBSyPsu6lHbUuYRMWaXN9h73S0OUmBZ+hDUQM/TavhiY0s3tbSZblJp0+UDF2f7Wlnh368G3QVojpuF2yccrTOto7gMtLMI0lVSKe5gUk/EpH0ZzM6an4FxPvTAAq64I8DjeScCaoB9DQY1I59uHbkRpP0JmXbis184j2S0CpvIHv/AgC8497au2Lr1Xbg/vqXV7O0mCyfbQsE4GJcZZgM53yjd019jpukR6jITo3rnyW570F6ixO1SEsQSNeKe2GEGpa/1n8+4+/XGmfcccRu+ulSvvL7cfsvw832xCdc1th0DaWZJ7y2TUxpCzRjxA73FWW5fa91AztFgj0dUjwNerxTxxfP9homyGRvpO0rOeZd5dn2/RA8hm281N9QjnxypA9K6hPP5Vp5lCKximoguP6QmWeg0u3jmd/uDTTihLj7QAC+G0Uz/20+V9sO2af237c/v1wk22lrJrJv6MoaHdyrtYVq99OQcWifMqZUhbpRGP7+dTtEtxdbVvyCgrlIdpkc127VaF0uulPkVxpzSpbmATvBiZMhVDl2mCsxpEV7OmX+dxP1fN6OtQe+tWPGCo0H79WEywaY9aE1nizKW2u4U9pB60N1Rh9NvdO5jSNJmfSaMolWV0QtFtofKUJKP8kwHX6Gf1c/FiN2ihNtoMGUwMqRWJFTqrbW0ZaejwUaPeiwTURpsQ5N3nDIRdHw42at9BchHz6WDpTe8+og7VwI4dzlD6xrjDDbnXlSXPZmKHJuFAui9yLHJ5bBhnkMig3J4XvMvhcRzbCszCYZFdB/Fsh9C3FGW6drmZVTx8BklConLE8X7+eopSQZTn/l7gXhvrDpTLTNzk8SxN9yqHSxJX6TAKWHjuNcvM5z1K2aDjfRvWVNpclU3pCFvVL47M06qG2r0hPROunuXQPbTS1iPZXqnm4nBod0n7+RYlxtpT2Xk1f6/5nSv/QFUpr1mSm2kP3v4RrlE6hrU36qINm5yUPSsHWiNxEGwpcSExIAJlXNbRGARQEasmk+3VvfN4wxH0do2jIbCooYVHnKoVYzJ7Ib1SQqRwVmeM0zhGltCBiJoKoVT/rCT6100RZWpLN4dwYOl2H0pEXIOzS2uqMLK4XYSTQWpF2plxxmVxpw2yEUakVWoUkzS2h0MynZlVLaHx9r3Io8NPkmjZ1modAaAmecmq0y7EyGsfXSc/U5NEVCHghApnF9RKoYu5dgpDPoMyXo0VvREg3VuRaOWXQOoPx0DCqSp/L/ZREqHTjcCbm6ZCQDw6HiFrKMxZxjtpc93T+Nf50Hn/PpuzaqUMbU4WtlmZstb/+XMpQnhJvmZRTCkjp5kqGU9vrFx1vhuxKRXn7jhInLYFnzKQdFiILczlHOUhqy/HQDLOSD/uIL1KhgxTDnCAEoFw5XC8XVLKj4Fr9ofKfrhAuFiZMh/bwiAZc1FEgD4/3GjwBPKIangAeUQ1PAI+ohieAR1TDE8AjquEJ4BHV8ATwiGp4AnhENTwBPKIangAeUQ1PAI+ohieAR1TDE8AjquEJ4BHV8ATwiGp4AnhENTwBPKIangAeUQ1PAI+ohieAR1TDE8AjquEJ4BHV8ATwiGKY/S9FxHbpiOI6ngAAAABJRU5ErkJggg==;" vertex="1" parent="1">
          <mxGeometry x="164" y="128" width="147" height="66.61" as="geometry" />
        </mxCell>
      </root>
    </mxGraphModel>
  </diagram>
</mxfile>
